<?xml version="1.0" encoding="UTF-8"?>
<svg version="1.1" xmlns="http://www.w3.org/2000/svg" width="512" height="512">
<path d="M0 0 C6.95554465 5.7815196 13.21437717 13.54383544 15.8125 22.3125 C15.87916815 23.88153497 15.8978821 25.45315352 15.875 27.0234375 C15.86597656 27.8282959 15.85695312 28.6331543 15.84765625 29.46240234 C15.83025391 30.37820068 15.83025391 30.37820068 15.8125 31.3125 C26.55774831 31.32083456 37.30240181 31.29672534 48.04747391 31.2322216 C53.03795992 31.20326071 58.02797952 31.18509925 63.01855469 31.19238281 C67.8429675 31.19901379 72.66646174 31.1762783 77.49068451 31.13394547 C79.3228503 31.12288095 81.15511001 31.12205341 82.9872818 31.13207626 C94.22624896 31.18563294 101.96435049 30.24938806 111.8125 24.3125 C126.42933842 18.98132028 145.27097822 19.96183221 159.68139648 25.78173828 C174.57785401 31.70334265 189.85286201 31.15076881 205.60748291 31.07147217 C211.44397503 31.0477236 217.28042503 31.07557564 223.11685181 31.10419464 C225.12567296 31.10922032 227.13451427 31.09853022 229.14331055 31.08734131 C246.39101832 31.09434984 246.39101832 31.09434984 252.96142578 34.39056396 C255.58223198 35.69586855 257.21612278 35.18552959 260.0625 34.625 C261.13242187 34.42777344 262.20234375 34.23054688 263.3046875 34.02734375 C265.66948835 33.54542999 268.02901786 33.03698666 270.3828125 32.50390625 C289.79087478 28.33934258 310.5414252 28.02469568 328.12109375 38.42578125 C342.51577761 48.51668445 352.29971472 61.79237866 356.41772461 79.04101562 C359.58383346 97.25837909 356.2924248 114.14473608 345.8125 129.3125 C332.42891345 147.12236078 312.02921621 154.52783489 291.8125 161.8125 C261.81832799 172.24225017 261.81832799 172.24225017 240.4375 194.6875 C239.03256235 200.58823813 238.76581374 206.19172295 241.75 211.625 C247.23407773 219.0000708 257.07013836 221.77284068 265.3125 225.0625 C294.89640645 237.16469831 324.96217769 254.56008039 337.99902344 285.23925781 C344.81315177 302.60587779 344.37762724 320.21313063 337.5 337.5625 C328.03383113 358.77008902 311.76960957 375.52491952 290.0625 384.1875 C267.68893994 392.12478678 243.87645682 390.3789217 222.3046875 380.74609375 C203.74148297 371.28895291 192.27599087 356.0973346 180.8125 339.3125 C180.3788916 338.68327637 179.9452832 338.05405273 179.49853516 337.40576172 C172.8125 327.69679926 172.8125 327.69679926 172.8125 325.3125 C171.75933594 325.90417969 170.70617187 326.49585938 169.62109375 327.10546875 C141.85706368 342.43048698 110.93267214 347.27952363 80 339.5625 C63.55206266 334.72068295 48.5558526 327.87186286 35.5078125 316.5859375 C33.26460113 314.69383747 30.99461915 312.92368178 28.64404297 311.17041016 C27.92586395 310.63404938 27.20768494 310.0976886 26.46774292 309.54507446 C25.92151276 309.13832489 25.37528259 308.73157532 24.8125 308.3125 C20.52250632 312.57759862 16.23594263 316.84610568 11.95239258 321.11767578 C10.49757983 322.56748917 9.04186717 324.01640017 7.58520508 325.46435547 C5.48015449 327.55714643 3.37846381 329.65326374 1.27734375 331.75 C0.63538559 332.38679688 -0.00657257 333.02359375 -0.66798401 333.6796875 C-4.47232042 337.48356054 -8.0825059 341.39863567 -11.57955933 345.48733521 C-28.31503523 364.48368372 -51.30659901 381.16292245 -77.125 383.125 C-94.62069807 384.07942276 -110.29894338 377.82734074 -123.75 366.75 C-134.53153065 356.73176356 -142.82962149 342.57093681 -143.42578125 327.6875 C-143.85089356 307.12508543 -138.26057348 291.14420466 -124.01171875 276 C-113.870524 266.17416155 -102.27434005 262.13736536 -88.96362305 258.58569336 C-79.06812197 255.87742252 -67.4165303 251.90497373 -60.82421875 243.59375 C-57.17333948 236.7427173 -56.99732397 229.82201119 -58.96484375 222.3671875 C-63.8641908 209.29063844 -73.31394738 198.88450822 -82.73583984 188.86621094 C-95.83921182 174.84168029 -108.81818201 158.92562898 -108.39453125 138.62890625 C-107.04674291 123.54893484 -99.33687546 110.32107988 -88.1875 100.3125 C-78.52694716 92.77581607 -67.77825644 88.1135863 -56.1875 84.3125 C-56.47625 83.466875 -56.765 82.62125 -57.0625 81.75 C-60.59525297 70.95547705 -61.32257394 63.10963751 -57.1875 52.3125 C-54.71218524 47.81500187 -51.90858068 43.85638636 -48.1875 40.3125 C-48.98414062 39.58546875 -49.78078125 38.8584375 -50.6015625 38.109375 C-59.37391949 29.87190097 -66.60414802 21.06277977 -67.4375 8.5625 C-67.35344499 2.92030736 -65.42817459 -1.55353971 -62.625 -6.375 C-45.0323407 -23.06547165 -16.74039234 -12.47873758 0 0 Z " fill="#FDFDFD" transform="translate(149.1875,68.6875)"/>
<path d="M0 0 C12.28632615 10.55986587 21.70766357 24.54771354 23.12329102 41.10351562 C23.94615139 60.93602309 20.91093323 76.09131386 7.77734375 91.70703125 C-5.77029625 105.96170297 -24.02195057 112.5063339 -42.09765625 119.01953125 C-72.09182826 129.44928142 -72.09182826 129.44928142 -93.47265625 151.89453125 C-94.8775939 157.79526938 -95.14434251 163.3987542 -92.16015625 168.83203125 C-86.67607852 176.20710205 -76.84001789 178.97987193 -68.59765625 182.26953125 C-39.0137498 194.37172956 -8.94797856 211.76711164 4.08886719 242.44628906 C10.90299552 259.81290904 10.46747099 277.42016188 3.58984375 294.76953125 C-5.87632512 315.97712027 -22.14054668 332.73195077 -43.84765625 341.39453125 C-66.22121631 349.33181803 -90.03369943 347.58595295 -111.60546875 337.953125 C-134.99613248 326.03660483 -148.57317747 304.06990021 -162.09765625 282.51953125 C-158.97747366 279.21803055 -155.54616261 276.52849696 -151.91015625 273.83203125 C-132.67156411 259.19233784 -119.63200565 239.27855253 -112.16015625 216.39453125 C-111.8775293 215.53722412 -111.59490234 214.67991699 -111.30371094 213.79663086 C-107.20254246 200.41248013 -106.78584636 186.74191223 -106.68359375 172.8671875 C-106.66482605 171.2295185 -106.64524877 169.5918586 -106.62490845 167.95420837 C-106.57417161 163.69818557 -106.53423821 159.4421316 -106.49676514 155.18597412 C-106.45635316 150.8211738 -106.40543306 146.45649645 -106.35546875 142.09179688 C-106.25940421 133.5677932 -106.17478352 125.04372724 -106.09765625 116.51953125 C-105.08119019 116.04012085 -105.08119019 116.04012085 -104.04418945 115.55102539 C-103.15046631 115.11910889 -102.25674316 114.68719238 -101.3359375 114.2421875 C-100.45204346 113.81945557 -99.56814941 113.39672363 -98.6574707 112.96118164 C-91.65902516 109.01975857 -87.77068019 102.27131444 -84.98828125 94.92578125 C-82.25645399 84.47774015 -83.14558648 75.38832825 -88.58984375 65.97265625 C-89.08742188 65.163125 -89.585 64.35359375 -90.09765625 63.51953125 C-90.77852529 62.19339416 -91.45115084 60.86275609 -92.09765625 59.51953125 C-91.25203125 59.22820312 -90.40640625 58.936875 -89.53515625 58.63671875 C-78.15077048 54.52281571 -71.03050603 50.23932213 -65.09765625 39.51953125 C-64.58525391 38.61460937 -64.58525391 38.61460937 -64.0625 37.69140625 C-60.39645399 29.84777293 -60.76076548 19.26294573 -63.53515625 11.20703125 C-66.2256834 5.41949442 -70.63754128 0.9960739 -75.09765625 -3.48046875 C-75.68417969 -4.06957031 -76.27070313 -4.65867187 -76.875 -5.265625 C-77.48021484 -5.86697266 -77.48021484 -5.86697266 -78.09765625 -6.48046875 C-51.97079924 -13.83310884 -22.83324167 -18.28386943 0 0 Z " fill="#EBECEE" transform="translate(483.09765625,111.48046875)"/>
<path d="M0 0 C1.12104779 -0.0060911 2.24209558 -0.01218221 3.39711452 -0.01845789 C7.15561324 -0.03511396 10.91377415 -0.03030816 14.67230225 -0.0255127 C17.36629908 -0.03285158 20.06027057 -0.0413445 22.7542572 -0.05117798 C29.31410506 -0.07222218 35.87386451 -0.07677336 42.43374214 -0.07499009 C47.76771593 -0.07368173 53.10166218 -0.0774904 58.4356308 -0.08491516 C59.97295085 -0.0870144 61.51027091 -0.089112 63.04759097 -0.09120798 C63.81280609 -0.09225151 64.5780212 -0.09329504 65.36642465 -0.09437019 C79.83617929 -0.11326915 94.30588323 -0.11222368 108.77564511 -0.10540086 C122.00233411 -0.09982807 135.22882926 -0.1206401 148.45547298 -0.15376133 C162.04525703 -0.18752695 175.6349483 -0.20266293 189.22477508 -0.1980443 C196.85089268 -0.19580219 204.4768312 -0.20100447 212.1029129 -0.22593689 C218.59685006 -0.24698744 225.09050999 -0.25050526 231.58445868 -0.2316373 C234.89523903 -0.22250144 238.20539782 -0.22399863 241.51615715 -0.24199295 C245.11239651 -0.26018764 248.70726837 -0.24743198 252.3034668 -0.22705078 C253.34025645 -0.23956863 254.37704609 -0.25208648 255.44525361 -0.26498365 C263.26625392 -0.17020347 269.92756635 1.77483227 275.81887555 7.13514566 C281.42465012 13.14522361 283.50321959 19.46696454 283.25726318 27.61706543 C282.36774898 34.6442276 278.91078143 40.50308027 273.90570068 45.39440918 C267.8412928 49.17104642 262.54532799 50.48740546 255.42523193 50.67565918 C253.55641357 50.7317334 253.55641357 50.7317334 251.64984131 50.78894043 C249.01703722 50.85956707 246.38422461 50.92987679 243.75140381 50.99987793 C242.50939209 51.03726074 241.26738037 51.07464355 239.98773193 51.11315918 C238.84538086 51.14345215 237.70302979 51.17374512 236.52606201 51.20495605 C233.98023069 51.10178755 233.98023069 51.10178755 232.90570068 52.39440918 C232.86477131 54.72738351 232.86328345 57.06146143 232.90570068 59.39440918 C233.53476318 59.42019043 234.16382568 59.44597168 234.81195068 59.47253418 C243.74557121 60.06452108 249.15402813 62.20937284 255.28070068 68.83190918 C260.58966599 74.91289534 261.42941959 80.09852601 261.27679443 88.03503418 C260.60333488 94.13161542 258.41616684 98.91545515 254.03851318 103.23815918 C246.87333413 108.9256943 240.45750376 110.84486235 231.46871948 110.78208923 C230.07269825 110.79016754 230.07269825 110.79016754 228.64847457 110.79840904 C225.54023315 110.81267862 222.4324182 110.80558725 219.32415771 110.79846191 C217.09144753 110.80416602 214.85874027 110.81113043 212.6260376 110.81925964 C206.56814772 110.83720231 200.51040261 110.83602044 194.45249414 110.83031726 C189.39285231 110.8272268 184.33323833 110.83331633 179.27360046 110.83935601 C166.65330453 110.85420644 154.03309576 110.85058471 141.41280638 110.8384927 C130.46497062 110.82856314 119.51730394 110.84149752 108.56949426 110.86542689 C97.31542118 110.88983943 86.06142474 110.89902101 74.80731857 110.89277416 C68.49415423 110.88940447 62.18112955 110.89182066 55.86798477 110.90902519 C49.93025985 110.92450032 43.99285747 110.92053208 38.05514526 110.90172005 C35.87874284 110.89803569 33.70231649 110.90113812 31.52593613 110.91160583 C28.54913673 110.92482769 25.57340326 110.91325708 22.59664917 110.89561462 C21.74050337 110.90521963 20.88435757 110.91482464 20.00226796 110.9247207 C12.49438086 110.83350622 6.88573158 108.34289092 0.65570068 104.26940918 C-4.86641778 98.49628533 -7.38698623 92.78937056 -7.65679932 84.76940918 C-7.2573472 76.25109281 -4.84547886 71.78519562 1.34320068 66.01940918 C7.59491517 60.56139062 12.78547855 60.09885697 20.80487061 60.1072998 C21.79725235 60.10046677 22.78963409 60.09363373 23.81208801 60.08659363 C25.96243722 60.07302378 28.11281854 60.06395885 30.26320457 60.05888367 C33.66256854 60.05059481 37.06166387 60.03009206 40.46095276 60.00634766 C48.89940745 59.94993802 57.33792708 59.91466048 65.77648926 59.87872314 C72.91376331 59.8475384 80.05090588 59.80840517 87.18807411 59.75846863 C90.54401494 59.73833707 93.89985537 59.73006943 97.25584412 59.72216797 C99.30213798 59.70920255 101.34842844 59.69568328 103.39471436 59.68151855 C104.80280869 59.68299141 104.80280869 59.68299141 106.23934937 59.68449402 C107.09311661 59.67622086 107.94688385 59.66794769 108.82652283 59.65942383 C109.94229092 59.65502415 109.94229092 59.65502415 111.08059978 59.65053558 C113.15533286 59.54609424 113.15533286 59.54609424 114.90570068 57.39440918 C114.615868 54.08757452 114.615868 54.08757452 112.90570068 51.39440918 C111.33398379 51.29719392 109.75790231 51.26976318 108.18318176 51.26983643 C107.16131775 51.26727341 106.13945374 51.26471039 105.08662415 51.2620697 C103.95578903 51.26416946 102.82495392 51.26626923 101.65985107 51.26843262 C100.4760788 51.26656448 99.29230652 51.26469635 98.07266235 51.26277161 C95.49061871 51.25875563 92.90857148 51.25669168 90.32652473 51.25630951 C86.23645623 51.25517018 82.14647824 51.2423365 78.05644226 51.22674561 C77.36618723 51.22417275 76.67593221 51.2215999 75.96476036 51.21894908 C74.55271205 51.21368188 73.14066381 51.2083964 71.72861564 51.20309305 C62.20454147 51.16800735 52.68057724 51.14142255 43.15643311 51.1439209 C36.73647669 51.14551446 30.31682701 51.12935241 23.89696878 51.09321427 C20.50166643 51.07482214 17.10687561 51.06535065 13.7115345 51.07769012 C9.9125835 51.08733612 6.1149347 51.06607774 2.31610107 51.03796387 C1.20348404 51.04816055 0.090867 51.05835724 -1.0554657 51.06886292 C-9.14041475 50.9619971 -15.8608418 49.18266646 -22.00431728 43.68525314 C-27.33679701 38.08793743 -29.22679021 32.07788756 -29.59429932 24.45690918 C-29.39198672 17.48152256 -27.17941488 12.66606661 -22.41461182 7.61315918 C-15.37560178 1.23112341 -9.29491901 -0.04735779 0 0 Z " fill="#E1E1E1" transform="translate(129.09429931640625,110.6055908203125)"/>
<path d="M0 0 C1.59765625 1.63671875 1.59765625 1.63671875 3.0625 3.6875 C8.63656414 10.49617046 16.8050819 13.39418652 25 16 C24.59007813 16.73605469 24.18015625 17.47210938 23.7578125 18.23046875 C23.21898438 19.20628906 22.68015625 20.18210938 22.125 21.1875 C21.59132813 22.15042969 21.05765625 23.11335938 20.5078125 24.10546875 C16.01051586 32.73888017 15.44230902 42.06339231 17.91015625 51.46875 C22.00349242 61.89293728 27.86081637 68.19095989 38 73 C40.3280016 73.68505288 42.66094416 74.35369771 45 75 C45.00586624 75.8325531 45.01173248 76.6651062 45.01777649 77.52288818 C45.07627206 85.46355242 45.14865913 93.40395215 45.23571491 101.34435654 C45.27998016 105.42421148 45.31932517 109.50397652 45.34643555 113.58398438 C45.59288753 149.54218948 48.59867612 182.16306876 71.89453125 211.359375 C73.54463386 213.42889145 75.10055884 215.50918811 76.6315918 217.66503906 C77.07665573 218.29089905 77.52171967 218.91675903 77.98027039 219.56158447 C78.31678116 220.0362616 78.65329193 220.51093872 79 221 C78.06728271 221.92748047 77.13456543 222.85496094 76.17358398 223.81054688 C72.68400607 227.28190149 69.19783964 230.75666551 65.71264648 234.23242188 C64.20933045 235.73073707 62.70511464 237.22815007 61.19995117 238.72460938 C59.0254053 240.88690225 56.8542129 243.05251613 54.68359375 245.21875 C53.68784584 246.20675598 53.68784584 246.20675598 52.67198181 247.21472168 C48.81398643 251.07226185 45.1455915 255.03517649 41.60025024 259.18252563 C24.87465954 278.17851233 1.8710829 294.85116858 -23.9375 296.8125 C-41.43319807 297.76692276 -57.11144338 291.51484074 -70.5625 280.4375 C-81.34403065 270.41926356 -89.64212149 256.25843681 -90.23828125 241.375 C-90.66339356 220.81258543 -85.07307348 204.83170466 -70.82421875 189.6875 C-60.683024 179.86166155 -49.08684005 175.82486536 -35.77612305 172.27319336 C-25.88062197 169.56492252 -14.2290303 165.59247373 -7.63671875 157.28125 C-3.98583948 150.4302173 -3.80982397 143.50951119 -5.77734375 136.0546875 C-10.6766908 122.97813844 -20.12644738 112.57200822 -29.54833984 102.55371094 C-42.65171182 88.52918029 -55.63068201 72.61312898 -55.20703125 52.31640625 C-53.85924291 37.23643484 -46.14937546 24.00857988 -35 14 C-26.34011683 7.24398889 -11.29083026 -3.66726167 0 0 Z " fill="#EBECEE" transform="translate(96,155)"/>
<path d="M0 0 C6.95554465 5.7815196 13.21437717 13.54383544 15.8125 22.3125 C15.87916815 23.88153497 15.8978821 25.45315352 15.875 27.0234375 C15.86597656 27.8282959 15.85695313 28.6331543 15.84765625 29.46240234 C15.83605469 30.07293457 15.82445312 30.6834668 15.8125 31.3125 C26.55774831 31.32083456 37.30240181 31.29672534 48.04747391 31.2322216 C53.03795992 31.20326071 58.02797952 31.18509925 63.01855469 31.19238281 C67.8429675 31.19901379 72.66646174 31.1762783 77.49068451 31.13394547 C79.3228503 31.12288095 81.15511001 31.12205341 82.9872818 31.13207626 C94.22624896 31.18563294 101.96435049 30.24938806 111.8125 24.3125 C126.42933842 18.98132028 145.27097822 19.96183221 159.68139648 25.78173828 C174.57785401 31.70334265 189.85286201 31.15076881 205.60748291 31.07147217 C211.44397503 31.0477236 217.28042503 31.07557564 223.11685181 31.10419464 C225.12567296 31.10922032 227.13451427 31.09853022 229.14331055 31.08734131 C243.40233328 31.0931354 252.88395102 32.8275297 263.5625 42.5625 C270.46575492 49.75472838 273.1575702 58.511277 273.1953125 68.27001953 C272.96683204 78.24461982 268.85296493 86.27043777 261.984375 93.41015625 C256.38127602 98.31790661 249.77573438 100.90701903 242.8125 103.3125 C243.22242188 103.97636719 243.63234375 104.64023438 244.0546875 105.32421875 C244.59351563 106.20722656 245.13234375 107.09023437 245.6875 108 C246.22117187 108.87011719 246.75484375 109.74023438 247.3046875 110.63671875 C252.01831417 119.00157436 252.25400224 128.47944444 249.97265625 137.7109375 C246.32710793 147.26055565 240.22782767 155.06637184 230.8125 159.3125 C229.8225 159.3125 228.8325 159.3125 227.8125 159.3125 C227.81694122 160.20626846 227.82138245 161.10003693 227.82595825 162.02088928 C227.86628903 170.50742007 227.89661218 178.99391795 227.91612434 187.48052311 C227.92649344 191.84195661 227.94052447 196.2033099 227.96337891 200.56469727 C227.98535572 204.78576364 227.99712007 209.00675361 228.00225449 213.22787285 C228.00590624 214.82594439 228.01303477 216.42401249 228.02396011 218.02205086 C228.1198556 232.65094732 227.0376349 246.36938601 222.1875 260.3125 C221.83486084 261.34213867 221.48222168 262.37177734 221.11889648 263.43261719 C210.30913021 294.05428686 186.98320037 319.3436827 157.75195312 333.43261719 C129.18472905 346.39287343 96.2338161 346.06367433 67.14672852 335.29663086 C54.24126943 330.30155872 43.2631196 323.41630239 32.8125 314.3125 C32.15636719 313.78914063 31.50023437 313.26578125 30.82421875 312.7265625 C25.98544832 308.84267138 22.46980933 304.29705868 18.8125 299.3125 C18.049375 298.33796875 17.28625 297.3634375 16.5 296.359375 C-2.01629774 272.26181979 -8.59923712 244.39247368 -8.3828125 214.53515625 C-8.37906942 212.98717942 -8.3762286 211.43920017 -8.37423706 209.89122009 C-8.36670231 205.87180718 -8.34714489 201.85254529 -8.3248291 197.83319092 C-8.30414805 193.70977825 -8.2951884 189.58634051 -8.28515625 185.46289062 C-8.26388631 177.41269211 -8.22987788 169.36261499 -8.1875 161.3125 C-9.28835937 161.17078369 -10.38921875 161.02906738 -11.5234375 160.88305664 C-19.30118822 159.67192901 -25.80510136 154.70005043 -30.6484375 148.6171875 C-36.96702101 139.15534924 -38.79406575 129.44766261 -37.1875 118.3125 C-35.2153052 112.81553151 -32.41214097 108.14946146 -29.1875 103.3125 C-30.09371094 102.9721875 -30.99992187 102.631875 -31.93359375 102.28125 C-39.98769614 99.07665476 -46.21684664 95.80510813 -52.1875 89.3125 C-52.69925781 88.75820312 -53.21101563 88.20390625 -53.73828125 87.6328125 C-58.62273557 81.61009302 -60.84692052 73.10756812 -60.46875 65.40234375 C-59.13141073 55.46517003 -55.50039029 47.27715742 -48.1875 40.3125 C-48.98414062 39.58546875 -49.78078125 38.8584375 -50.6015625 38.109375 C-59.37391949 29.87190097 -66.60414802 21.06277977 -67.4375 8.5625 C-67.35344499 2.92030736 -65.42817459 -1.55353971 -62.625 -6.375 C-45.0323407 -23.06547165 -16.74039234 -12.47873758 0 0 Z M-44.96875 52.578125 C-49.50451462 59.03286696 -50.08766324 64.54109073 -49.1875 72.3125 C-47.34263085 78.82905394 -43.89911809 84.86506587 -38.15498352 88.65273762 C-31.26047353 92.40846579 -25.56125518 93.02246396 -17.79296875 92.94018555 C-16.59503189 92.94745667 -15.39709503 92.95472778 -14.16285706 92.96221924 C-10.90896909 92.97753009 -7.65600237 92.97120535 -4.40214539 92.95553565 C-0.98775134 92.94489587 2.42646852 92.9641808 5.84082031 92.98066711 C12.29449893 93.00770919 18.74794182 93.01132613 25.20166588 93.00489408 C36.78114846 92.99390735 48.3605627 93.01851382 59.93997288 93.05864173 C63.33589078 93.06957864 66.73166121 93.07499093 70.12759399 93.06867027 C73.90282431 93.06201947 77.67789803 93.06657538 81.453125 93.07299805 C82.58036484 93.06730301 83.70760468 93.06160797 84.8690033 93.05574036 C85.89224197 93.05967804 86.91548065 93.06361572 87.96972656 93.06767273 C88.86193909 93.06670939 89.75415161 93.06574606 90.67340088 93.06475353 C92.8125 93.3125 92.8125 93.3125 94.8125 95.3125 C94.25694444 99.86805556 94.25694444 99.86805556 92.8125 101.3125 C89.68895723 101.41662656 86.58679657 101.4561074 83.46264648 101.4543457 C81.98940666 101.45955734 81.98940666 101.45955734 80.48640442 101.46487427 C78.34471139 101.47224762 76.20301064 101.47758454 74.06130791 101.48116493 C70.66906875 101.48831185 67.27697582 101.50396689 63.88478088 101.52250671 C54.23660337 101.57504694 44.5885029 101.62292506 34.94018555 101.63842773 C29.0450029 101.64852267 23.15018323 101.67789214 17.25514412 101.71974754 C15.00937715 101.73204712 12.76355886 101.73718072 10.51775932 101.73494911 C7.3674861 101.73259009 4.2182483 101.75481151 1.06811523 101.7824707 C0.14467316 101.77586929 -0.77876892 101.76926788 -1.73019409 101.76246643 C-8.94835827 101.86617003 -14.21710764 103.67686615 -19.6484375 108.49609375 C-20.28007812 109.23988281 -20.91171875 109.98367187 -21.5625 110.75 C-22.20960937 111.49121094 -22.85671875 112.23242188 -23.5234375 112.99609375 C-28.03492648 119.27617114 -28.00684601 125.8250721 -27.1875 133.3125 C-24.95869405 141.13495973 -20.16297365 146.28069914 -13.1875 150.3125 C-8.00188187 152.4702033 -3.40976425 152.60448557 2.10903931 152.59338379 C3.036749 152.59932603 3.9644587 152.60526828 4.92028081 152.61139059 C8.02452734 152.62871413 11.12861915 152.63177676 14.23291016 152.63476562 C16.46060514 152.64402563 18.68829696 152.65407544 20.91598511 152.66485596 C26.96582819 152.69107451 33.0156269 152.7039883 39.0655179 152.71287727 C42.84768423 152.71874398 46.6298385 152.72695463 50.41199875 152.73588562 C60.89668193 152.76009772 71.38135799 152.78086322 81.86606789 152.7876358 C82.87164673 152.7882945 82.87164673 152.7882945 83.89754029 152.78896651 C84.56947432 152.78940306 85.24140835 152.78983962 85.93370402 152.7902894 C87.29515815 152.79117631 88.65661228 152.79206944 90.01806641 152.79296875 C90.69338584 152.79341161 91.36870527 152.79385447 92.06448893 152.79431075 C102.99748687 152.80220021 113.93021769 152.83709121 124.86311252 152.88368779 C136.10472807 152.93121085 147.34621455 152.95552877 158.5879463 152.95837164 C164.89294118 152.96046474 171.19755916 152.97221555 177.50246048 153.00801086 C183.43698642 153.04104826 189.37085368 153.04524718 195.305439 153.02773285 C197.47737395 153.02619607 199.64934486 153.03482528 201.82118988 153.05464935 C218.27854971 153.35366714 218.27854971 153.35366714 232.8125 146.3125 C238.29633599 140.61824219 241.09182853 134.98856812 241.1875 127 C241.03341212 118.9602383 238.89024972 114.33943719 233.5 108.5 C227.36288221 102.79196036 220.89804063 101.78429211 212.8125 101.3125 C212.77008277 98.97955225 212.77157063 96.64547433 212.8125 94.3125 C214.60318896 92.52181104 217.29881858 93.13983478 219.71875 93.1015625 C220.93820312 93.07320312 222.15765625 93.04484375 223.4140625 93.015625 C225.98163693 92.9641706 228.5493628 92.91972168 231.1171875 92.8828125 C240.78158864 92.63968291 248.99497062 91.85008527 256.30859375 85.0625 C261.46472457 79.06263868 263.2446838 72.05343953 263.15234375 64.296875 C262.31238509 56.92068629 258.48933442 51.21826239 252.8515625 46.56640625 C246.00432776 42.3557504 240.51033202 41.87765652 232.59121704 41.91809082 C231.46860926 41.91199972 230.34600148 41.90590861 229.18937528 41.89963293 C225.43164835 41.88299794 221.67426008 41.88777963 217.91650391 41.89257812 C215.22073708 41.88523811 212.52499554 41.87674472 209.82923889 41.86691284 C203.26919523 41.84588227 196.70923999 41.84131662 190.1491666 41.84310073 C184.81568487 41.84440952 179.48223067 41.84059822 174.14875412 41.83317566 C172.61111971 41.83107641 171.0734853 41.82897881 169.53585088 41.82688284 C168.77047279 41.82583931 168.0050947 41.82479578 167.21652333 41.82372063 C152.74870214 41.80482792 138.28093167 41.80586552 123.81310324 41.81268996 C110.58580231 41.81826502 97.35869508 41.79743994 84.1314394 41.76432949 C70.54049851 41.73057345 56.94965036 41.71542652 43.35866678 41.72004652 C35.73203704 41.72228924 28.10558633 41.71707699 20.47899246 41.69215393 C13.98614887 41.67111604 7.4935825 41.6675733 1.00072743 41.68645352 C-2.3099362 41.69559629 -5.61997742 41.69407647 -8.93062019 41.67609787 C-12.52496776 41.65792659 -16.11794359 41.67064134 -19.71224976 41.69104004 C-20.75127013 41.67852219 -21.7902905 41.66600434 -22.86079633 41.65310717 C-32.2694382 41.76743352 -39.19064053 45.06658269 -44.96875 52.578125 Z M2.8125 162.3125 C-0.36284787 210.16099649 -0.36284787 210.16099649 7.875 259.5625 C8.32854858 260.76894165 8.32854858 260.76894165 8.79125977 261.99975586 C19.88662276 290.47663976 41.0787384 311.90833398 68.78955078 324.44433594 C93.49681376 335.047646 121.66233554 335.67179095 146.8125 326.1875 C175.77491091 314.56783156 197.22465539 293.97461848 209.8125 265.3125 C223.57741072 231.86102181 217.8125 199.69352668 217.8125 162.3125 C146.8625 162.3125 75.9125 162.3125 2.8125 162.3125 Z " fill="#050505" transform="translate(149.1875,68.6875)"/>
<path d="M0 0 C11.9126181 8.85677259 20.85373057 21.35206971 24 36 C25.46473186 54.76271007 23.02930202 71.2478731 10.453125 85.984375 C-0.1823514 97.39531519 -13.32938874 104.14432236 -29.0078125 105.203125 C-45.78543779 105.45542012 -59.65683354 99.91516323 -71.84765625 88.2578125 C-77.07231391 82.77713713 -81.04519905 76.97186506 -84 70 C-84.37382812 69.15050781 -84.74765625 68.30101562 -85.1328125 67.42578125 C-88.57511936 58.60336541 -88.59928516 50.30543568 -88 41 C-87.91105469 39.53046875 -87.91105469 39.53046875 -87.8203125 38.03125 C-86.17714648 24.72561296 -77.93258187 11.64008182 -68 3 C-47.38043739 -12.32850503 -22.00837687 -13.62849354 0 0 Z " fill="#5555D1" transform="translate(291,264)"/>
<path d="M0 0 C11.9126181 8.85677259 20.85373057 21.35206971 24 36 C25.46473186 54.76271007 23.02930202 71.2478731 10.453125 85.984375 C-0.1823514 97.39531519 -13.32938874 104.14432236 -29.0078125 105.203125 C-45.78543779 105.45542012 -59.65683354 99.91516323 -71.84765625 88.2578125 C-77.07231391 82.77713713 -81.04519905 76.97186506 -84 70 C-84.37382812 69.15050781 -84.74765625 68.30101562 -85.1328125 67.42578125 C-88.57511936 58.60336541 -88.59928516 50.30543568 -88 41 C-87.91105469 39.53046875 -87.91105469 39.53046875 -87.8203125 38.03125 C-86.17714648 24.72561296 -77.93258187 11.64008182 -68 3 C-47.38043739 -12.32850503 -22.00837687 -13.62849354 0 0 Z M-54 6 C-54.95261719 6.56976563 -55.90523437 7.13953125 -56.88671875 7.7265625 C-67.42771237 14.71554326 -73.53926135 23.93629521 -77 36 C-77.19207031 36.64195312 -77.38414062 37.28390625 -77.58203125 37.9453125 C-80.19533739 50.79203243 -76.95309479 64.29639989 -70.0703125 75.2109375 C-63.16845385 84.50891312 -53.92329693 90.35890102 -43 94 C-28.4216628 95.42337311 -15.49738757 94.83648621 -3.66015625 85.43359375 C1.88587718 80.74487018 6.97329127 75.68346704 10 69 C10.38800781 68.18917969 10.77601563 67.37835938 11.17578125 66.54296875 C15.62469082 55.61179919 16.2479595 41.36519051 11.875 30.3125 C10.96947225 28.51409154 10.01338617 26.73991435 9 25 C8.55398438 24.19433594 8.10796875 23.38867188 7.6484375 22.55859375 C0.94881544 11.49860315 -9.61232579 4.35713301 -22 1 C-33.25009752 -0.23714162 -44.11388519 0.0654362 -54 6 Z " fill="#040406" transform="translate(291,264)"/>
<path d="M0 0 C6.93596212 5.7652424 13.26342313 13.55004827 15.8125 22.3125 C15.87973195 24.04960552 15.89770378 25.78908592 15.875 27.52734375 C15.86597656 28.42445068 15.85695313 29.32155762 15.84765625 30.24584961 C15.83605469 30.92784424 15.82445312 31.60983887 15.8125 32.3125 C14.94378769 32.31796844 14.94378769 32.31796844 14.05752563 32.32354736 C7.98928762 32.36559865 1.92179011 32.43510029 -4.14599609 32.52001953 C-6.40568611 32.54811629 -8.66547233 32.56938657 -10.92529297 32.58349609 C-14.18767152 32.60508219 -17.44890686 32.65181349 -20.7109375 32.703125 C-22.20843033 32.70496796 -22.20843033 32.70496796 -23.73617554 32.70684814 C-31.82630067 32.87297957 -38.43017633 34.80761755 -45.1875 39.3125 C-51.00291361 39.05467378 -53.91111195 35.25918238 -57.7421875 31.28515625 C-63.63508027 24.12143198 -67.54563226 15.82087779 -67.40625 6.46484375 C-66.81878632 0.68462076 -64.39750819 -4.69338967 -60.1875 -8.6875 C-40.57678519 -20.60244377 -17.23725174 -12.84910991 0 0 Z " fill="#EBECEE" transform="translate(149.1875,68.6875)"/>
<path d="M0 0 C5.36364789 2.36417101 8.623113 6.41374815 11.57421875 11.38671875 C13.55206271 17.32025062 13.5825311 24.02524994 10.94921875 29.76171875 C7.66950496 35.40883158 2.66110795 39.07370085 -3.42578125 41.38671875 C-10.62381458 42.08330262 -15.91196399 40.42963576 -22.11328125 36.82421875 C-26.58333142 32.11254425 -29.66948523 26.3311939 -29.98828125 19.76171875 C-29.50496704 12.72268109 -26.48383668 8.07627369 -21.30078125 3.44921875 C-15.06207444 -1.71831387 -7.85906173 -1.98691255 0 0 Z " fill="#030306" transform="translate(267.42578125,291.61328125)"/>
<path d="M0 0 C0 0.33 0 0.66 0 1 C-26.07 1 -52.14 1 -79 1 C-55.58508486 -17.73193211 -25.37105973 -9.10459027 0 0 Z " fill="#E9EAEC" transform="translate(326,100)"/>
<path d="M0 0 C3.02508145 1.73602105 5.41790069 3.83580137 7 7 C7.57791538 14.0505676 7.57791538 14.0505676 5.25 17.875 C2.16812992 20.78565508 0.31452329 21.79996385 -3.875 22.4375 C-8.75013269 21.75498142 -11.50472122 18.95036363 -14.4375 15.125 C-15.31927745 11.79384074 -14.81612906 9.32281116 -14 6 C-10.22874079 0.40393795 -6.75155719 -1.15239937 0 0 Z " fill="#F7F7F7" transform="translate(263,301)"/>
</svg>
